SplineFontDB: 3.0
FontName: Coiny-Regular
FullName: Coiny
FamilyName: Coiny Regular
Weight: Regular
Copyright: Copyright (c) 2015, Marcelo Magalhaes
Version: 1.0
ItalicAngle: 0
UnderlinePosition: -100
UnderlineWidth: 50
Ascent: 760
Descent: 240
InvalidEm: 0
UFOAscent: 760
UFODescent: -240
LayerCount: 2
Layer: 0 0 "Back" 1
Layer: 1 0 "Fore" 0
PreferredKerning: 4
FSType: 0
OS2Version: 0
OS2_WeightWidthSlopeOnly: 0
OS2_UseTypoMetrics: 0
CreationTime: 1439303423
ModificationTime: 1439678791
PfmFamily: 16
TTFWeight: 400
TTFWidth: 5
LineGap: 90
VLineGap: 0
Panose: 2 0 5 3 0 0 0 0 0 0
OS2TypoAscent: 760
OS2TypoAOffset: 0
OS2TypoDescent: -240
OS2TypoDOffset: 0
OS2TypoLinegap: 90
OS2WinAscent: 765
OS2WinAOffset: 0
OS2WinDescent: 240
OS2WinDOffset: 0
HheadAscent: 765
HheadAOffset: 0
HheadDescent: -240
HheadDOffset: 0
OS2SubXSize: 650
OS2SubYSize: 700
OS2SubXOff: 0
OS2SubYOff: 140
OS2SupXSize: 650
OS2SupYSize: 700
OS2SupXOff: 0
OS2SupYOff: 480
OS2StrikeYSize: 49
OS2StrikeYPos: 258
OS2CapHeight: 0
OS2XHeight: 515
OS2Vendor: 'PfEd'
OS2CodePages: 00000001.00000000
OS2UnicodeRanges: 00000005.00000000.00000000.00000000
MarkAttachClasses: 1
DEI: 91125
LangName: 1033 "Copyright (c) 2015, Marcelo Magalhaes" "" "" "FontForge : Coiny : 10-8-2015" "" "Version 001.000"
Encoding: Original
UnicodeInterp: none
NameList: AGL For New Fonts
DisplaySize: -96
AntiAlias: 1
FitToEm: 1
WinInfo: 0 13 5
BeginPrivate: 5
BlueValues 14 [-4 0 515 515]
OtherBlues 11 [-240 -240]
StemSnapH 36 [79 117 122 134 147 162 170 178 711]
StemSnapV 35 [90 95 102 213 217 224 236 243 258]
BlueShift 1 0
EndPrivate
Grid
801 1260 m 0
 801 -740 l 1024
-1000 415.333333333 m 0
 2000 415.333333333 l 1024
-1000 -11 m 0
 2000 -11 l 1024
-1000 -6 m 0
 2000 -6 l 1024
-1000 -222 m 0
 2000 -222 l 1024
-1000 -118 m 0
 2000 -118 l 1024
578.999982744 1260 m 0
 578.999982744 -740 l 1024
-1000 342 m 0
 2000 342 l 1024
-1000 588.916992188 m 4
 2000 588.916992188 l 1028
  Named: "caps"
-1000 408.857818604 m 0
 2000 408.857818604 l 1024

StartChar: space
Encoding: 0 32 0
GlifName: space
Width: 978
VWidth: 0
GlyphClass: 2
Flags: W
HStem: -11 62<302.01 414> -10.9876 62.6112<393.484 427.254> 193.969 63.79<393.434 427.355> 306 103.499<276.018 936.388>
VStem: 28 189<121.191 253.727> 258.112 122.526<61.9327 182.395> 439.101 122.472<61.4255 182.442>
LayerCount: 2
Back
Fore
SplineSet
389 306 m 260xbe
 261 306 217 254 217 184 c 0
 217 103 301 51 414 51 c 1
 414 -11 l 0
 150.635416667 -11 28 75.25 28 196 c 3
 28 222 32.7665648602 250.096283993 44 277 c 0
 93.2699724518 395 246.08984375 409.499023438 409 409.499023438 c 260
 468.104492188 409.499023438 842.833007812 409.499023438 884 409.499023438 c 260
 928.25 409.499023438 943 394 943 353 c 260
 943 312 918.413085938 302 865 302 c 260
 825.848632812 302 532.211914062 306 389 306 c 260xbe
EndSplineSet
Refer: 24 111 N 0.63 0 0 0.63 242.362 -4.11728 2
EndChar

StartChar: uni0B85
Encoding: 1 2949 1
GlifName: uni0B_85
Width: 1314
VWidth: 0
Flags: W
HStem: -239 184.5<317.39 659.141> -234.131 569.62<1034.79 1164.46> 0 82<301.671 1014> 115.781 54.3457<461.63 510.192> 273.681 74.3193<433.662 573.985> 292 17.0498<441.109 598.701>
VStem: 329.332 126.989<172.286 286> 514.803 126.941<172.133 263.664> 728.514 182.64<-72 148.078> 1005.72 189.555<-200.425 0 81 306.652> 1005.72 8.27637<0 81>
LayerCount: 2
Back
Fore
SplineSet
121.6171875 -58 m 260x8ba0
 121.6171875 46 202 82 331 82 c 4
 414.020957735 82 953.83488004 81.1947091261 1014 81 c 261
 1014 0 l 261
 298 0 l 260
 298 -32 317 -54.5 512 -54.5 c 260
 694.120117188 -54.5 728.513671875 2 728.513671875 68 c 260
 728.513671875 200 621.513671875 292 528 292 c 4xa7a0
 511.513671875 292 456.353515625 286 456.353515625 220 c 4
 328.75390625 220 l 4
 328.75390625 303.7578125 400 348 511 348 c 4
 703 348 911.153320312 239 911.153320312 50.25 c 260
 911.153320312 -146 824.335840278 -239 519 -239 c 260
 231 -239 121.6171875 -179.900390625 121.6171875 -58 c 260x8ba0
1195.27832031 -103.431640625 m 260x43c0
 1195.27832031 -200.333984375 1162.05371094 -234.130859375 1099.66210938 -234.130859375 c 260
 1037.27148438 -234.130859375 1005.72363281 -206.130859375 1005.72363281 -110.081054688 c 260
 1005.72363281 -16.7177734375 1003.78710938 157.813476562 1003.78710938 231.185546875 c 260
 1003.78710938 306.670898438 1045.69238281 335.489257812 1099.66210938 335.489257812 c 260
 1154.30957031 335.489257812 1195 323.473632812 1195 239 c 260
 1195 161.741210938 1195.27832031 3.5947265625 1195.27832031 -103.431640625 c 260x43c0
514.802734375 220 m 260
 514.802734375 245.184570312 506 273.680664062 486.486328125 273.680664062 c 260
 467.32397486 273.680664062 456.321289062 244.837890625 456.321289062 220 c 260
 456.321289062 195.192382812 465.96875 170.126953125 486.240234375 170.126953125 c 260x1b80
 506.619140625 170.126953125 514.802734375 194.852539062 514.802734375 220 c 260
486 115.78125 m 260
 399.284179688 115.78125 329.33203125 152.942382812 329.33203125 220 c 260
 329.33203125 275.250976562 396.215820312 309.049804688 486.001953125 309.049804688 c 260x1780
 575.888671875 309.049804688 641.744140625 275.250976562 641.744140625 220 c 260
 641.744140625 152.942382812 572.809570312 115.78125 486 115.78125 c 260
EndSplineSet
EndChar

StartChar: uni0B86
Encoding: 2 2950 2
GlifName: uni0B_86
Width: 1400
VWidth: 0
Flags: W
HStem: -516 181.691<854.107 1063.49> -264 67<837.525 897.002> -239 184.5<215.39 557.141> -234.131 569.62<932.793 1062.46> -69.7568 133.757<1121.21 1260> 0 82<199.671 912> 115.781 54.3457<359.63 408.192> 273.681 74.3193<331.662 471.985> 292 17.0498<339.109 496.701>
VStem: 227.332 126.989<172.286 286> 412.803 126.941<172.133 263.664> 626.514 182.64<-72 148.078> 688 149<-379.493 -265.89> 903.724 8.27637<0 81> 903.724 189.555<-200.425 0 81 306.652> 1016.54 76.2334<-125.43 -75.3796> 1168.78 201.216<-241.136 -72.6312>
LayerCount: 2
Back
Fore
SplineSet
1060 -316 m 0xc86980
 1130.89971249 -288.554950005 1168.78417969 -238 1168.78417969 -125 c 0
 1168.78417969 -93 1162 -69.7568359375 1135.34082031 -69.7568359375 c 256
 1110 -69.7568359375 1092.76953125 -87 1092.76953125 -125.4296875 c 257
 1016.53613281 -126.173828125 l 257
 1016.53613281 -75.4951171875 1026.97363281 -18.9052734375 1075.91015625 15.2353515625 c 256
 1127.60449219 51.2998046875 1164.73925781 64 1231 64 c 256
 1289 64 1370 12 1370 -168 c 256
 1370 -372 1212 -516 990 -516 c 256
 818 -516 688 -442 688 -315 c 0
 688 -236 754 -197 818 -197 c 0
 873 -197 905.288085938 -214 905.288085938 -237 c 0
 905.288085938 -261 888 -264 875 -264 c 0
 848 -264 837 -275 837 -292 c 0
 837 -316.501675551 890.834399822 -334.309250339 953.999997814 -334.309250339 c 3
 988.99164253 -334.309250339 1026.84683811 -328.833482024 1060 -316 c 0xc86980
EndSplineSet
Refer: 1 2949 N 1 0 0 1 -102 0 2
EndChar

StartChar: uni0B87
Encoding: 3 2951 3
GlifName: uni0B_87
Width: 1347
VWidth: 0
Flags: W
HStem: -363 134.404<328.129 446.175 700.831 811.987> -34 106.781<460.954 698.033> 115.781 62.1123<560.084 602.159> 265.914 82.0859<530.286 681.476> 292 17.0498<536.365 702.572> 397.857 160.143<470.707 806.176>
VStem: 124.087 154.913<-189.899 -94.0473> 177 185<133.683 313.03> 424.588 131.375<179.317 286> 605.673 131.327<179.196 265.447> 776 141<86.4386 217.588> 844 163.794<-197.776 -85.5903> 1042.94 189.555<-266.294 190.319>
LayerCount: 2
Back
SplineSet
1232.49121094 -169.30078125 m 260x43c0
 1232.49121094 -266.203125 1199.26660156 -300 1136.875 -300 c 260
 1074.484375 -300 1042.93652344 -272 1042.93652344 -175.950195312 c 260
 1042.93652344 -82.5869140625 1041 -11.67578125 1041 61.6962890625 c 260
 1041 137.181640625 1082.90527344 166 1136.875 166 c 260
 1191.52246094 166 1232.21289062 153.984375 1232.21289062 69.5107421875 c 260
 1232.21289062 -7.748046875 1232.49121094 -62.2744140625 1232.49121094 -169.30078125 c 260x43c0
605.672851562 220.28515625 m 260
 605.672851562 241.692382812 598.190429688 265.9140625 581.603515625 265.9140625 c 260
 565.315429688 265.9140625 555.962890625 241.397460938 555.962890625 220.28515625 c 260
 555.962890625 199.19921875 564.1640625 177.893554688 581.39453125 177.893554688 c 260x1b80
 598.716796875 177.893554688 605.672851562 198.91015625 605.672851562 220.28515625 c 260
581.255859375 115.78125 m 260
 494.540039062 115.78125 424.587890625 152.942382812 424.587890625 220 c 260
 424.587890625 275.250976562 491.471679688 309.049804688 581.2578125 309.049804688 c 260x1780
 671.14453125 309.049804688 737 275.250976562 737 220 c 260
 737 152.942382812 668.065429688 115.78125 581.255859375 115.78125 c 260
757.255859375 -363 m 4
 451.512542816 -363 155.013264789 -11.8408225294 177 252 c 4
 192 432 326 558 648 558 c 4
 900 558 1039.99965001 482.142252854 1134 381 c 4
 1235.83691406 271.42578125 1232 60 1232 60 c 5
 1041 60 l 5
 1041 270 933 397.857421875 612 397.857421875 c 4
 453.96875 397.857421875 366 342 362 234 c 4
 357.035475138 99.9578287162 518.017779219 -120.56888976 656 -204 c 4
 742 -256 831 -222 843 -162 c 4
 862.055586704 -66.7220664824 701 -34 580.255859375 -34 c 4
 454 -34 279 -68 279 -150 c 4
 279 -201 405.974389106 -273.302617853 522 -192 c 4
 659 -96 768 56 776 166 c 260
 782.092998445 249.778728625 734 292 665 292 c 4xa7a0
 605 292 551.609375 286 551.609375 220 c 4
 424.009765625 220 l 4
 424.009765625 303.7578125 495.255859375 348 606.255859375 348 c 4
 798.255859375 348 917 262 917 126 c 260
 917 -30 709.757139902 -363 399 -363 c 4
 159 -363 96.9814453125 -208.651367188 134 -105 c 4
 179 21 386.000001295 72.5613606786 579 72.78125 c 4
 771 73 968.22265625 24.9658203125 1000 -105 c 4
 1044.74414062 -288 888 -363 757.255859375 -363 c 4
EndSplineSet
Fore
SplineSet
1232.21289062 57 m 4xf5d8
 1232.21289062 -31 1232.49121094 -62.2744140625 1232.49121094 -169.30078125 c 260
 1232.49121094 -266.203125 1199.26660156 -300 1136.875 -300 c 260
 1074.484375 -300 1042.93652344 -272 1042.93652344 -175.950195312 c 260
 1042.93652344 -82.5869140625 1041 -13.3720703125 1041 60 c 260
 1041 270 933 397.857421875 612 397.857421875 c 4
 453.96875 397.857421875 362 342 362 234 c 4
 362 92 518.017779219 -120.56888976 656 -204 c 4
 683.99464972 -220.926997505 713.684703254 -227.526879263 740.99999793 -227.526879263 c 7
 797.597713976 -227.526879263 844 -194.270453676 844 -153 c 4xf5d8
 844 -66 701 -34 580.255859375 -34 c 4
 454 -34 279 -68 279 -150 c 4
 279 -184.246264023 336.25351846 -228.596398764 408.999997162 -228.596398764 c 7
 444.588559366 -228.596398764 483.885049971 -218.708286152 522 -192 c 4
 659 -96 776 66 776 178 c 260
 776 255 734 292 665 292 c 4xeee8
 605 292 551.609375 286 551.609375 220 c 4
 424.009765625 220 l 4
 424.009765625 303.7578125 495.255859375 348 606.255859375 348 c 4
 798.255859375 348 917 262 917 126 c 260
 917 -30 709.757139902 -363 399 -363 c 4
 201.016776888 -363 124.087400192 -257.96426378 124.087400192 -163.000002486 c 7xf6e8
 124.087400192 -142.846314126 127.519165196 -123.146234872 134 -105 c 4
 179 21 385.999876032 72.78125 579 72.78125 c 4
 772 72.78125 968.22265625 24.9658203125 1000 -105 c 4
 1005.43833705 -127.242368871 1007.79389233 -147.889286068 1007.79389233 -167.000003698 c 7
 1007.79389233 -305.123497343 872.108965008 -363 757.255859375 -363 c 4
 467 -363 177 -41.7548828125 177 223 c 4
 177 428 326 558 648 558 c 4
 1062 558 1232.21289062 358 1232.21289062 57 c 4xf5d8
605.672851562 220.28515625 m 260
 605.672851562 241.692382812 598.190429688 265.9140625 581.603515625 265.9140625 c 260
 565.315429688 265.9140625 555.962890625 241.397460938 555.962890625 220.28515625 c 260
 555.962890625 199.19921875 564.1640625 177.893554688 581.39453125 177.893554688 c 260
 598.716796875 177.893554688 605.672851562 198.91015625 605.672851562 220.28515625 c 260
581.255859375 115.78125 m 260
 494.540039062 115.78125 424.587890625 152.942382812 424.587890625 220 c 260
 424.587890625 275.250976562 491.471679688 309.049804688 581.2578125 309.049804688 c 260xecc8
 671.14453125 309.049804688 737 275.250976562 737 220 c 260
 737 152.942382812 668.065429688 115.78125 581.255859375 115.78125 c 260
EndSplineSet
EndChar

StartChar: uni0B88
Encoding: 4 2952 4
GlifName: uni0B_88
Width: 999
VWidth: 0
Flags: W
HStem: -0.796875 21G<97.8047 160.196 569.805 632.196> 97.8408 132.159<287.424 437.867 755.424 905.867> 299.696 109.161<60 505.125 601 943.749>
VStem: 35.0615 189.555<33.3059 302.996 312.368 396.842> 266.173 189.165<117.647 208.799> 507.062 189.555<32.9093 380.039> 734.173 189.165<117.647 208.799>
LayerCount: 2
Back
Fore
SplineSet
869.142578125 408.857421875 m 260
 932.275390625 408.122070312 952.6953125 394.99609375 952.6953125 350.719726562 c 260
 952.6953125 310.006835938 923.524414062 299.696289062 861 299.696289062 c 260
 799.651367188 299.696289062 158.560546875 302.377929688 106 302.99609375 c 260
 53.441417455 303.61423471 35.4931640625 315.443359375 35.4931640625 348 c 260
 35.4931640625 390 60 408.858398438 111.431640625 409.918945312 c 260
 180.572265625 411.345703125 806.008789195 409.592784811 869.142578125 408.857421875 c 260
734.172851562 164 m 260
 734.172851562 114.271484375 780.11328125 97.8408203125 828.337890625 97.8408203125 c 260
 885.575195312 97.8408203125 923.337890625 111.708007812 923.337890625 164 c 260
 923.337890625 208.884765625 891.077148438 230 828.337890625 230 c 260
 766.452148438 230 734.172851562 201.514648438 734.172851562 164 c 260
266.172851562 164 m 260
 266.172851562 114.271484375 312.11328125 97.8408203125 360.337890625 97.8408203125 c 260
 417.575195312 97.8408203125 455.337890625 111.708007812 455.337890625 164 c 260
 455.337890625 208.884765625 423.077148438 230 360.337890625 230 c 260
 298.452148438 230 266.172851562 201.514648438 266.172851562 164 c 260
696.616210938 129.90234375 m 260
 696.616210938 33 663.391601562 -0.796875 601 -0.796875 c 260
 538.609375 -0.796875 507.061523438 27.203125 507.061523438 123.252929688 c 260
 507.061523438 219.3046875 505.125 229.068359375 505.125 304.553710938 c 260
 505.125 380.0390625 547.030273438 408.857421875 601 408.857421875 c 260
 655.647460938 408.857421875 696.337890625 396.841796875 696.337890625 312.368164062 c 260
 696.337890625 232.891601562 696.616210938 240 696.616210938 129.90234375 c 260
224.616210938 129.90234375 m 260
 224.616210938 33 191.391601562 -0.796875 129 -0.796875 c 260
 66.609375 -0.796875 35.0615234375 21.109375 35.0615234375 117.159179688 c 260
 35.0615234375 213.2109375 35.4931640625 272.514648438 35.4931640625 348 c 260
 35.4931640625 402 75.0302734375 408.857421875 129 408.857421875 c 260
 183.647460938 408.857421875 224.337890625 396.841796875 224.337890625 312.368164062 c 260
 224.337890625 232.891601562 224.616210938 240 224.616210938 129.90234375 c 260
EndSplineSet
EndChar

StartChar: uni0B8E
Encoding: 5 2958 5
GlifName: uni0B_8E_
Width: 978
VWidth: 0
Flags: W
HStem: -11 62<302.01 414> -10.9876 62.6112<393.484 427.254> 0 406.499<636.249 769.794> 193.969 63.79<393.434 427.355> 306 103.499<276.018 936.388>
VStem: 28 189<121.191 253.727> 258.112 122.526<61.9327 182.395> 439.101 122.472<61.4255 182.442> 611 190<33.5132 385.496>
LayerCount: 2
Back
Fore
SplineSet
801 130 m 256x2780
 801 33 767 0 705 0 c 256
 643 0 611 21 611 117 c 256
 611 213 611 273 611 348 c 256
 611 402 651 406.499023438 705 406.499023438 c 256
 760 406.499023438 800 397 800 312 c 256
 800 233 801 240 801 130 c 256x2780
EndSplineSet
Refer: 0 32 S 1 0 0 1 0 0 2
EndChar

StartChar: uni0B8F
Encoding: 6 2959 6
GlifName: uni0B_8F_
Width: 966
VWidth: 0
Flags: W
HStem: -11 62<302.01 414> -10.9876 62.6112<393.484 427.254> 193.969 63.79<393.434 427.355> 298.696 105.161<636.011 705 800.338 970 1161.21 1297.02> 306 103.499<276.018 936.388>
VStem: 28 189<121.191 253.727> 258.112 122.526<61.9327 182.395> 439.101 122.472<61.4255 182.442> 611.062 189.555<28.3059 301.996 307.368 391.842> 611.446 189.982<4.83194 160> 971.937 189.555<27.9093 375.039>
LayerCount: 2
Back
Fore
SplineSet
502 -50 m 256x2760
 594 0 611.446219825 12 611.446219825 53.9999999998 c 0
 611.446219825 98 611 114 611 160 c 1
 801 160 l 1
 801.125235006 131.292295585 801.427735946 75.9999969838 801.427735946 75.9999969838 c 2
 801.427735946 14.0470110246 799.891027526 -37.5483535158 791 -56 c 0
 767.389187122 -104.999777715 718 -135 569.151367188 -205.413085938 c 256
 481.556220164 -246.850111582 437.130859375 -232.908203125 409.751953125 -176.84375 c 256
 403.428748825 -163.895570557 400.457943155 -152.460731132 400.457943155 -142 c 3
 400.457943155 -107.168927805 437.099708413 -85.2718976014 502 -50 c 256x2760
EndSplineSet
Refer: 7 3006 N 1 0 0 1 576 0 2
Refer: 0 32 N 1 0 0 1 0 0 2
EndChar

StartChar: uni0BBE
Encoding: 7 3006 7
GlifName: uni0B_B_E_
Width: 999
VWidth: 0
Flags: W
HStem: 298.696 105.161<60.0107 129 224.338 394 585.213 721.022>
VStem: 35.0615 189.555<28.3059 301.996 307.368 391.842> 395.937 189.555<27.9093 375.039>
LayerCount: 2
Back
Fore
SplineSet
646.142578125 407.857421875 m 260
 709.275390625 407.122070312 729.6953125 393.99609375 729.6953125 349.719726562 c 260
 729.6953125 309.006835938 700.524414062 298.696289062 638 298.696289062 c 262
 106 301.99609375 l 262
 53.44140625 302.614257812 35.4931640625 314.443359375 35.4931640625 347 c 260
 35.4931640625 389 60.0107421875 407.415039062 111.431640625 408.918945312 c 260
 160.223632812 410.345703125 601.586914062 408.375976562 646.142578125 407.857421875 c 260
585.491210938 124.90234375 m 256
 585.491210938 28 552.266601562 -5.796875 489.875 -5.796875 c 256
 427.484375 -5.796875 395.936523438 22.203125 395.936523438 118.252929688 c 256
 395.936523438 214.3046875 394 224.068359375 394 299.553710938 c 256
 394 375.0390625 435.905273438 403.857421875 489.875 403.857421875 c 256
 544.522460938 403.857421875 585.212890625 391.841796875 585.212890625 307.368164062 c 256
 585.212890625 227.891601562 585.491210938 235 585.491210938 124.90234375 c 256
224.616210938 124.90234375 m 258
 224.616210938 28 191.391601562 -5.796875 129 -5.796875 c 256
 66.609375 -5.796875 35.0615234375 16.109375 35.0615234375 112.159179688 c 256
 35.0615234375 208.2109375 35.4931640625 267.514648438 35.4931640625 343 c 256
 35.4931640625 397 75.0302734375 403.857421875 129 403.857421875 c 256
 183.647460938 403.857421875 224.337890625 391.841796875 224.337890625 307.368164062 c 256
 224.337890625 227.891601562 224.616210938 124.90234375 224.616210938 124.90234375 c 258
EndSplineSet
EndChar

StartChar: period
Encoding: 9 46 9
GlifName: period
Width: 275
VWidth: 0
Flags: W
HStem: -6 132.159<62.0863 212.529>
VStem: 40.835 189.165<13.8066 104.958>
LayerCount: 2
Back
Fore
SplineSet
40.8349609375 60.1591796875 m 260
 40.8349609375 10.4306640625 86.775390625 -6 135 -6 c 260
 192.237304688 -6 230 7.8671875 230 60.1591796875 c 260
 230 105.043945312 197.739257812 126.159179688 135 126.159179688 c 260
 73.1142578125 126.159179688 40.8349609375 97.673828125 40.8349609375 60.1591796875 c 260
EndSplineSet
EndChar

StartChar: b
Encoding: 11 98 11
GlifName: b
Width: 526
VWidth: 0
GlyphClass: 2
Flags: W
HStem: -10.3975 107.2<225.958 293.88> 307.147 107.654<253.459 388.697>
VStem: 30.8457 189.564<104.583 301.133 372.358 559.522> 313.5 188.5<112.557 287.111>
LayerCount: 2
Back
Fore
SplineSet
220.41015625 126.545898438 m 5
 229.703125 108.787109375 243.897460938 96.802734375 263.900390625 96.802734375 c 4
 297.557617188 96.802734375 313.5 148.317382812 313.5 194.40234375 c 4
 313.5 248.670796902 294.799804688 307.147460938 263.252929688 307.147460938 c 0
 243.720703125 307.147460938 229.577148438 294.036132812 220.26953125 274.923828125 c 1
 220.26953125 245.62814263 220.41015625 180.43458781 220.41015625 126.545898438 c 5
219.4921875 372.358398438 m 1
 254.081054688 398.040039062 296.380859375 414.801757812 343.393554688 414.801757812 c 1
 434 414.801757812 502 331.839330133 502 194.40234375 c 4
 502 64.443359375 392.400390625 -10.3974609375 244.400390625 -10.3974609375 c 4
 117.200195312 -10.3974609375 30.845703125 47.5166015625 30.845703125 156.001953125 c 4
 30.845703125 255.07310305 28.9091796875 406.259926461 28.9091796875 484.118164062 c 0
 28.9091796875 559.603515625 70.1376953125 588.421875 124.784179688 588.421875 c 0
 179.883789062 588.421875 211.194335938 576.262695312 216.122070312 491.932617188 c 0
 217.827148438 462.741210938 218.865234375 420.013671875 219.4921875 372.358398438 c 1
EndSplineSet
PickledDataWithLists: "(dp1
S'com.fontlab.hintData'
p2
(dp3
S'vhints'
p4
(lp5
(dp6
S'position'
p7
I42
sS'width'
p8
I217
sa(dp9
g7
I154
sg8
I102
sa(dp10
g7
I390
sg8
I236
sasS'hhints'
p11
(lp12
(dp13
g7
I-4
sg8
I134
sa(dp14
g7
I0
sg8
I711
sa(dp15
g7
I380
sg8
I135
sass."
EndChar

StartChar: c
Encoding: 12 99 12
GlifName: c
Width: 495
VWidth: 0
GlyphClass: 2
Flags: W
HStem: -11 141.183<241.832 368.403> 315.553 99.8301<233.739 282.849>
VStem: 21.5156 191.901<159.767 298.978> 283.89 181.58<232.834 314.949>
LayerCount: 2
Back
Fore
SplineSet
270.599609375 235.662109375 m 256
 270.599609375 258.0625 283.889648438 277.46484375 283.889648438 290.71875 c 256
 283.889648438 305.583007813 278.934570312 315.552734375 261.333984375 315.552734375 c 256
 232.051757812 315.552734375 213.416992188 265.69921875 213.416992188 218.182617188 c 256
 213.416992188 166.583007813 247.739257812 130.182617188 302.599609375 130.182617188 c 256
 329.826171875 130.182617188 357.799768042 133.382937311 379.734375 139.823242188 c 256
 407.443359375 147.958984375 418.393554688 162.912109375 433.458984375 162.912109375 c 256
 461.400390625 162.912109375 475 146.982421875 475 130.182617188 c 256
 475 89.9582619414 402.063476562 -11 268.8515625 -11 c 256
 130.377048299 -11 21.515625 66.7455484155 21.515625 204.83203125 c 260
 21.515625 336.18359375 125.598383543 415.3828125 268.8515625 415.3828125 c 256
 410.783203125 415.3828125 465.469726562 363.783203125 465.469726562 291.3828125 c 256
 465.469726562 251.714748413 436.8515625 183.689453125 338.599609375 183.689453125 c 256
 301.44921875 183.689453125 270.599609375 188.282226563 270.599609375 235.662109375 c 256
EndSplineSet
PickledDataWithLists: "(dp1
S'com.fontlab.hintData'
p2
(dp3
S'vhints'
p4
(lp5
(dp6
S'position'
p7
I31
sS'width'
p8
I236
sasS'hhints'
p9
(lp10
(dp11
g7
I-4
sg8
I170
sa(dp12
g7
I398
sg8
I117
sass."
EndChar

StartChar: e
Encoding: 14 101 14
GlifName: e
Width: 495
VWidth: 0
GlyphClass: 2
Flags: W
HStem: -11.3057 133.183<242.623 371.194> 178.478 64.2656<121.901 288.119> 340.247 74.8301<235.789 284.171>
VStem: 289.89 175.581<243.319 338.47>
LayerCount: 2
Back
Fore
SplineSet
268.852539062 -11.3056640625 m 260
 132.056640625 -11.3056640625 24.515625 62.4775390623 24.515625 193.526367188 c 260
 24.515625 331.740251352 127.336914062 415.077148438 268.852539062 415.077148438 c 260
 410.783203125 415.077148438 465.470703125 358.900154359 465.470703125 280.077148438 c 260
 465.470703125 231.732421875 428.193771486 179.218594496 336.599609375 178.477539062 c 262
 89.400390625 176.477539062 l 261
 121.799804688 240.077148438 l 261
 121.799804688 240.077148438 261.855602412 242.743164062 270.956054688 242.743164062 c 260
 277.982421875 242.743164062 282.028118097 246.400868624 285.072265625 253.90625 c 260
 288.116210938 261.411132812 289.889648438 272.159179688 289.889648438 285.413085938 c 260
 289.889648438 318.233694517 283.617656331 340.247070312 261.334960938 340.247070312 c 260
 238.452148438 340.247070312 213.41796875 287.476645179 213.41796875 218.477539062 c 260
 213.41796875 163.158996382 243.251953125 121.876953125 302.599609375 121.876953125 c 260
 329.826171875 121.876953125 357.532954665 126.067722787 379.735351562 131.517578125 c 260
 412.879896854 139.653320312 425.978609939 154.606445312 444 154.606445312 c 260
 464.851285909 154.606445312 475 140.136880146 475 124.876953125 c 260
 475 86.0771484375 402.063476562 -11.3056640625 268.852539062 -11.3056640625 c 260
EndSplineSet
PickledDataWithLists: "(dp1
S'com.fontlab.hintData'
p2
(dp3
S'vhints'
p4
(lp5
(dp6
S'position'
p7
I372
sS'width'
p8
I227
sasS'hhints'
p9
(lp10
(dp11
g7
I-4
sg8
I170
sa(dp12
g7
I230
sg8
I80
sa(dp13
g7
I398
sg8
I117
sass."
EndChar

StartChar: f
Encoding: 15 102 15
GlifName: f
Width: 440
VWidth: 0
GlyphClass: 2
Flags: W
HStem: 254.618 109.161<51.8604 116.965 306.009 388.757> 467 122.041<318.506 365.643>
VStem: 110.616 189.555<26.1547 396.721 396.857 451.528>
LayerCount: 2
Back
Fore
SplineSet
300 396.857421875 m 1
 300 428 306 442 318 452 c 260
 328.745728989 460.954774158 342.628121598 467 378.506835938 467 c 256
 406.448242188 467 420.048828125 482.9296875 420.048828125 499.729492188 c 256
 420.048828125 533.040979149 374.3828125 589.041015625 267.434570312 589.041015625 c 256
 151.182617188 589.041015625 113.068388029 534.303710751 112.213867188 403.256835938 c 256
 111.489257812 292.1328125 110.616210938 207.282226562 110.616210938 118.53125 c 256
 110.616210938 22.482421875 142.165039062 -5.517578125 204.555664062 -5.517578125 c 256
 266.946289062 -5.517578125 300.170898438 22.482421875 300.170898438 125.180664062 c 256
 300.170898438 209.493164062 300 396.857421875 300 396.857421875 c 1
EndSplineSet
Refer: 46 139 N 1 0 0 1 5.533 -84.0824 2
PickledDataWithLists: "(dp1
S'com.fontlab.hintData'
p2
(dp3
S'vhints'
p4
(lp5
(dp6
S'position'
p7
I164
sS'width'
p8
I225
sa(dp9
g7
I175
sg8
I237
sasS'hhints'
p10
(lp11
(dp12
g7
I333
sg8
I178
sa(dp13
g7
I618
sg8
I147
sass."
EndChar

StartChar: g
Encoding: 16 103 16
GlifName: g
Width: 512
VWidth: 0
GlyphClass: 2
Flags: W
HStem: -175.706 120.184<150.618 276.78> -10.3057 107.383<140.716 285.954>
VStem: 25.6873 188.501<114.464 287.423> 293.098 188.902<-37.8567 378.373> 321.388 81.5996<118.009 283.637>
LayerCount: 2
Back
Fore
SplineSet
293.09765625 32.4775390625 m 256xf0
 293.09765625 101.668945312 294.225585938 252.477539062 294.225585938 311.288085938 c 256
 294.225585938 370.099609375 326.6796875 409.8984375 381.322265625 409.248046875 c 256
 435.965820312 408.59765625 479.504882812 392.388671875 479.504882812 313.833007812 c 256
 479.504882812 235.27734375 482 83.3544921875 482 13.1259765625 c 256
 482 -117.922851562 398.458984375 -175.706054688 261.663085938 -175.706054688 c 256
 128.452148438 -175.706054688 55.515625 -94.3232421875 55.515625 -55.5224609375 c 256
 55.515625 -38.72265625 69.1162109375 -22.79296875 97.056640625 -22.79296875 c 256
 112.12109375 -22.79296875 123.073242188 -37.74609375 150.780273438 -45.8818359375 c 256
 172.715820312 -52.3232421875 200.689453125 -55.5224609375 227.916015625 -55.5224609375 c 256
 282.776367188 -55.5224609375 293.09765625 -19.123046875 293.09765625 32.4775390625 c 256xf0
EndSplineSet
Refer: 44 137 S 1 0 0 1 -51.3684 1 2
PickledDataWithLists: "(dp1
S'com.fontlab.hintData'
p2
(dp3
S'vhints'
p4
(lp5
(dp6
S'position'
p7
I235
sS'width'
p8
I236
sa(dp9
g7
I587
sg8
I236
sa(dp10
g7
I605
sg8
I102
sasS'hhints'
p11
(lp12
(dp13
g7
I-240
sg8
I170
sa(dp14
g7
I-4
sg8
I134
sa(dp15
g7
I380
sg8
I135
sass."
EndChar

StartChar: i
Encoding: 18 105 18
GlifName: i
Width: 271
VWidth: 0
GlyphClass: 2
Flags: W
HStem: -5.90527 414.771<70.7556 200.887> 444.841 132.159<56.8538 213.641>
VStem: 34.835 199.165<465.749 555.315> 39.4361 189.078<15.5223 376.928>
LayerCount: 2
Back
Fore
SplineSet
34.8349609375 511 m 260xe0
 34.8349609375 461.271484375 82.775390625 444.840820312 131 444.840820312 c 260
 188.237304688 444.840820312 234 458.708007812 234 511 c 260
 234 555.884765625 193.739257812 577 131 577 c 260
 69.1142578125 577 34.8349609375 548.514648438 34.8349609375 511 c 260xe0
EndSplineSet
Refer: 36 305 N 1 0 0 1 -42.7553 0 2
PickledDataWithLists: "(dp1
S'com.fontlab.hintData'
p2
(dp3
S'vhints'
p4
(lp5
(dp6
S'position'
p7
I47
sS'width'
p8
I259
sa(dp9
g7
I59
sg8
I236
sasS'hhints'
p10
(lp11
(dp12
g7
I546
sg8
I165
sass."
EndChar

StartChar: j
Encoding: 19 106 19
GlifName: j
Width: 422
VWidth: 0
Flags: W
HStem: -176.955 129.823<106.093 289.477> 444.841 132.159<216.854 373.641>
VStem: 194.835 199.165<465.749 555.315> 199.015 189.586<-28.4985 36.0283 304.101 375.148>
LayerCount: 2
Back
Fore
SplineSet
194.834960938 511 m 260xe0
 194.834960938 461.271484375 242.775390625 444.840820312 291 444.840820312 c 260
 348.237304688 444.840820312 394 458.708007812 394 511 c 260
 394 555.884765625 353.739257812 577 291 577 c 260
 229.114257812 577 194.834960938 548.514648438 194.834960938 511 c 260xe0
387 317.62890625 m 256
 387 367.228515625 350.447265625 408.403320312 295.799804688 408.403320312 c 256
 241.400390625 408.403320312 199.924804688 379.584960938 199.924804688 304.100585938 c 256
 199.924804688 190.532226562 199.014648438 132.766601562 199.014648438 36.0283203125 c 256
 199.014648438 -31.9716796875 163.014648438 -47.1318359375 120.697265625 -47.1318359375 c 256
 91.8193359375 -47.1318359375 74.0380859375 -24.0419921875 58.97265625 -24.0419921875 c 256
 31.03125 -24.0419921875 25.431640625 -39.9716796875 25.431640625 -56.7724609375 c 256
 25.431640625 -95.572265625 98.3681640625 -176.955078125 231.580078125 -176.955078125 c 256
 347.374023438 -176.955078125 388.600585938 -96.6201171875 388.600585938 34.4287109375 c 256xd0
 387 317.62890625 l 256
EndSplineSet
EndChar

StartChar: k
Encoding: 20 107 20
GlifName: k
Width: 497
VWidth: 0
Flags: W
HStem: -5.79883 585.621<62.5841 182.17> -5.79785 204.8<366.81 433.678> 117.402 161.6<223.949 283.379>
VStem: 32.457 186.054<33.4625 117.402 299.942 548.684> 285.604 185.396<12.4996 115.866 282.068 384.018>
LayerCount: 2
Back
SplineSet
256.139648438 309 m 1049
249.749023438 154 m 1,1,-1
 216.546875 154 l 256,0,1
 216.546875 87 175.016601562 -0.0009765625 97.02734375 -0.0009765625 c 256,2,3
 19.0380859375 -0.0009765625 -20.396484375 34.9990234375 -20.396484375 155.061523438 c 256,4,5
 -20.396484375 275.125976562 -22.8173828125 507.288085938 -22.8173828125 601.64453125 c 256,6,7
 -22.8173828125 696.000976562 24.0283203125 732.024414062 97.02734375 732.024414062 c 1,30,31
 191.028320312 732.024414062 209.749023438 672 209.749023438 531 c 0,32,33
 209.749023438 479.1171875 206.432617188 422.180664062 200.416015625 380.1953125 c 1,34,35
 205.383789062 364.341796875 217.951171875 356 249.749023438 356 c 0,0,1
 308.061523438 356 293.616210938 387 293.616210938 414.290039062 c 0,4,5
 293.616210938 479 322.60546875 511 411.010742188 511 c 0,6,7
 503.93359375 511 525.361328125 489.313476562 525.361328125 379 c 0,8,9
 525.361328125 262 386.130859375 202 256.139648438 202 c 1024,10,11
249.749023438 154 m 1049
256.139648438 309 m 0,10,11
 386.130859375 309 525.361328125 249 525.361328125 132 c 0,8,9
 525.361328125 21.6865234375 503.93359375 0 411.010742188 0 c 0,6,7
 322.60546875 0 293.616210938 32 293.616210938 96.7099609375 c 0,4,5
 293.616210938 124 308.061523438 154 249.749023438 154 c 1024,0,1
EndSplineSet
Fore
SplineSet
255.534179688 117.40234375 m 4x38
 223.94921875 117.40234375 l 260x38
 223.94921875 63.802734375 190.724609375 -5.798828125 128.333007812 -5.798828125 c 260
 65.9414062502 -5.798828125 34.39453125 22.201171875 34.39453125 118.251953125 c 260
 34.39453125 214.302734375 32.45703125 400.033203125 32.45703125 475.517578125 c 260
 32.45703125 553.40234375 69.9335937502 576.720703125 128.333007812 579.822265625 c 5x98
 203.534179688 579.822265625 218.510742188 531.802734375 218.510742188 419.001953125 c 4
 218.510742188 377.49609375 215.857421875 331.947265625 211.043945312 298.358398438 c 5
 215.018554688 285.67578125 225.072265625 279.001953125 250.510742188 279.001953125 c 4x38
 277.133789062 279.001953125 285.604492188 287.802734375 285.604492188 325.634765625 c 4
 285.604492188 377.40234375 308.795898438 403.001953125 379.51953125 403.001953125 c 4
 453.858398438 403.001953125 471 379.001953125 471 312.602539062 c 4
 471 234.202148438 413.133789062 199.001953125 366.734375 199.001953125 c 5
 413.133789062 199.001953125 471 171.802734375 471 99.802734375 c 4
 471 11.5517578125 453.858398438 -5.7978515625 379.51953125 -5.7978515625 c 4x58
 308.795898438 -5.7978515625 285.604492188 19.802734375 285.604492188 71.5703125 c 4
 285.604492188 111.001953125 277.357421875 117.40234375 255.534179688 117.40234375 c 4x38
EndSplineSet
EndChar

StartChar: m
Encoding: 22 109 22
GlifName: m
Width: 765
VWidth: 0
GlyphClass: 2
Flags: W
HStem: -5.90527 414.771<61.7508 191.882> 272.739 133.757<248.082 397.916 498.63 656.731>
VStem: 30.4313 189.078<15.5223 376.928> 143.396 76.2334<208.066 267.592> 294.294 173.706<24.8231 262.711> 391.396 76.2334<208.066 245.882> 542.294 189.706<27.6527 264.791>
LayerCount: 2
Back
Fore
SplineSet
293.24609375 223.748046875 m 256x5a
 293.24609375 262.7109375 276.799804688 272.739257812 255.201171875 272.739257812 c 256
 233.770507812 272.739257812 219.629882812 245.881835938 219.629882812 208.06640625 c 257
 143.396484375 207.323242188 l 257
 143.396484375 258.000976562 156.473712314 321.352325954 203.770507812 357.731445312 c 256
 250.658203125 393.795898438 299.760742188 406.49609375 359.861328125 406.49609375 c 256
 435.970703125 406.49609375 468 350.497070312 468 201.697265625 c 256
 468 27.296875 452.701171875 -5.5029296875 377.599609375 -5.5029296875 c 256
 316.534179688 -5.5029296875 294.293945312 20.0966796875 294.293945312 66.30859375 c 256
 294.293945312 123.631835938 293.24609375 183.975585938 293.24609375 223.748046875 c 256x5a
541.24609375 223.748046875 m 256
 541.24609375 262.7109375 524.799804688 272.739257812 503.201171875 272.739257812 c 256
 481.770507812 272.739257812 467.629882812 245.881835938 467.629882812 208.06640625 c 257
 391.396484375 207.323242188 l 257x46
 391.396484375 258.000976562 403.614562801 322.497482296 451.770507812 357.731445312 c 256
 501.061523438 393.795898438 552.680664062 406.49609375 615.861328125 406.49609375 c 256
 697.600585938 406.49609375 732 350.497070312 732 201.697265625 c 256
 732 27.296875 715.34765625 -5.5029296875 633.599609375 -5.5029296875 c 256
 566.669921875 -5.5029296875 542.293945312 20.0966796875 542.293945312 66.30859375 c 256
 542.293945312 123.631835938 541.24609375 183.975585938 541.24609375 223.748046875 c 256
EndSplineSet
Refer: 36 305 S 1 0 0 1 -51.7601 0 2
PickledDataWithLists: "(dp1
S'com.fontlab.hintData'
p2
(dp3
S'vhints'
p4
(lp5
(dp6
S'position'
p7
I327
sS'width'
p8
I236
sa(dp9
g7
I466
sg8
I95
sa(dp10
g7
I654
sg8
I233
sa(dp11
g7
I790
sg8
I95
sa(dp12
g7
I978
sg8
I233
sasS'hhints'
p13
(lp14
(dp15
g7
I0
sg8
I21
sa(dp16
g7
I495
sg8
I20
sass."
EndChar

StartChar: o
Encoding: 24 111 24
GlifName: o
Width: 531
VWidth: 0
GlyphClass: 2
Flags: W
HStem: -10.9053 99.3828<239.876 293.48> 314.423 101.254<239.798 293.64>
VStem: 25 194.485<104.841 296.051> 312.285 194.399<104.036 296.126>
LayerCount: 2
Back
Refer: 36 305 N 1 0 0 1 -39.4563 0 2
Refer: 36 305 N 1 0 0 1 -39.4563 0 2
Refer: 36 305 N 1 0 0 1 -39.4563 0 2
Fore
SplineSet
312.28515625 200.41796875 m 256
 312.28515625 255.052734375 298.032942231 314.422851562 267.51953125 314.422851562 c 256
 236 314.422851562 219.485351562 254.358398438 219.485351562 200.475585938 c 260
 219.485351562 146.6171875 234.833984375 88.4775390625 267.083984375 88.4775390625 c 256
 299.333984375 88.4775390625 312.28515625 145.809570312 312.28515625 200.41796875 c 256
266.658203125 -10.9052734375 m 256
 132.901367188 -10.9052734375 25 64.60546875 25 198.876953125 c 256
 25 334.068359375 128.16796875 415.676757812 266.663085938 415.676757812 c 256
 405.19140625 415.676757812 506.684570312 334.068359375 506.684570312 198.876953125 c 256
 506.684570312 64.60546875 400.447265625 -10.9052734375 266.658203125 -10.9052734375 c 256
EndSplineSet
PickledDataWithLists: "(dp1
S'com.fontlab.hintData'
p2
(dp3
S'vhints'
p4
(lp5
(dp6
S'position'
p7
I-7
sS'width'
p8
I243
sa(dp9
g7
I333
sg8
I243
sasS'hhints'
p10
(lp11
(dp12
g7
I-4
sg8
I124
sa(dp13
g7
I495
sg8
I20
sass."
EndChar

StartChar: r
Encoding: 27 114 27
GlifName: r
Width: 410
VWidth: 0
GlyphClass: 2
Flags: W
HStem: -5.90527 414.771<62.8987 193.03> 274.742 134.115<243.146 349.225>
VStem: 31.5792 189.078<15.5223 376.928> 142.396 76.2334<210.069 269.959>
LayerCount: 2
Back
SplineSet
302.086914062 225.75 m 256
 302.086914062 264.713867188 285.641601562 274.7421875 264.04296875 274.7421875 c 256
 237.791015625 274.7421875 220.471679688 247.883789062 220.471679688 210.069335938 c 257
 144.23828125 209.325195312 l 257
 144.23828125 260.00390625 157.298828125 323.377929688 204.612304688 359.734375 c 256
 256.306640625 395.798828125 310.44140625 408.499023438 376.702148438 408.499023438 c 256
 458.442382812 408.499023438 492.841796875 352.5 492.841796875 203.700195312 c 256
 492.841796875 29.2998046875 476.189453125 -3.5 394.44140625 -3.5 c 256
 327.51171875 -3.5 303.134765625 22.099609375 303.134765625 68.3115234375 c 256
 303.134765625 125.634765625 302.086914062 185.979492188 302.086914062 225.75 c 256
886.841796875 314.890625 m 260x40
 886.841796875 240.490234375 857.2421875 220.490234375 806.041992188 220.490234375 c 260
 750.041992188 220.490234375 736.793945312 282.091796875 710.890625 282.091796875 c 260
 684.986328125 282.091796875 681.927734375 262.66015625 682.666015625 219.748046875 c 261
 607.465820312 219.291992188 l 261
 607.465820312 270.962890625 628.963867188 327.899414062 668.368164062 362.283203125 c 260
 708.490234375 397.291015625 728.442382812 412.090820312 790.069335938 412.435546875 c 260
 855.934570312 412.803710938 886.841796875 379.690429688 886.841796875 314.890625 c 260x40
EndSplineSet
Fore
SplineSet
180 333 m 256x50
 201 363 259.201171875 408.857421875 315 408.857421875 c 260
 376.201171875 408.857421875 406 381 406 322 c 260
 406 276 377 244 334 244 c 260
 289 244 291 274.7421875 258.201171875 274.7421875 c 260
 226 274.7421875 218.629882812 247.883789062 218.629882812 210.069335938 c 257
 142.396484375 209.325195312 l 257
 142.396484375 260.00390625 145.504114516 283.720163595 180 333 c 256x50
EndSplineSet
Refer: 36 305 N 1 0 0 1 -50.6122 0 2
PickledDataWithLists: "(dp1
S'com.fontlab.hintData'
p2
(dp3
S'vhints'
p4
(lp5
(dp6
S'position'
p7
I36
sS'width'
p8
I236
sa(dp9
g7
I177
sg8
I94
sasS'hhints'
p10
(lp11
(dp12
g7
I353
sg8
I162
sass."
EndChar

StartChar: s
Encoding: 28 115 28
GlifName: s
Width: 427
VWidth: 0
GlyphClass: 2
Flags: W
HStem: -11.0996 103.782<98.4105 225.382> 334.38 80.7197<187.495 308.615>
VStem: 21 165.975<264.018 331.1>
LayerCount: 2
Back
Fore
SplineSet
208.352539062 415.099609375 m 256
 97.6416015627 415.099609375 21 362.299804688 21 287.5 c 256
 21 235.769830362 37.0009765625 197.806872832 89 166.099609375 c 260
 134.731445312 139.364257812 226.041015625 135.752929688 226.041015625 111.700195312 c 260
 226.041015625 99.2998046882 216.444335938 92.6826171875 188.693359375 92.6826171875 c 260
 161.466796875 92.6826171875 139.893554688 95.8828124998 117.958007812 102.323242188 c 260
 90.2509765628 110.458984375 71.5068359376 125.412109375 56.44140625 125.412109375 c 260
 32.8408203125 125.412109375 22.693359375 109.482421875 22.693359375 92.6826171875 c 260
 22.693359375 51.5020237175 92.9677734379 -11.099609375 204.840820312 -11.099609375 c 260
 350.44140625 -11.099609375 406.599609375 56.0792037119 409.799804688 115.700195312 c 260
 413.354492187 181.003000335 390.599609375 224.159206067 296.200195312 263.900390625 c 256
 248.85546875 283.158203125 186.974609375 287.099609375 186.974609375 314.565429688 c 256
 186.974609375 327.099609375 203.892578125 334.379882812 232.166992188 334.379882812 c 256
 251.735351562 334.379882812 277.942382812 329.014648438 298.561523438 319.138671875 c 256
 319.241210938 309.233398438 346.702148438 284.587890625 361.766601562 284.587890625 c 256
 377.3671875 284.587890625 389.3671875 296.700195312 389.3671875 317.317382812 c 256
 389.3671875 356.1171875 320.2265625 415.099609375 208.352539062 415.099609375 c 256
EndSplineSet
PickledDataWithLists: "(dp1
S'com.fontlab.hintData'
p2
(dp3
S'hhints'
p4
(lp5
(dp6
S'position'
p7
I-4
sS'width'
p8
I122
sa(dp9
g7
I393
sg8
I122
sass."
EndChar

StartChar: t
Encoding: 29 116 29
GlifName: t
Width: 424
VWidth: 0
GlyphClass: 2
Flags: W
HStem: -5.92188 145.824<176.26 311.119> 260.7 109.161<24.3274 89.4316 278.476 361.224>
LayerCount: 2
Back
SplineSet
197.098632812 607 m 256
 197.098632812 653.374023438 192.293945312 688.8515625 138.598632812 688.8515625 c 256
 66.0986328125 688.8515625 -19.45703125 639.115234375 -19.45703125 582 c 256
 -19.45703125 444.115234375 -20.9423828125 348.024414062 -20.9423828125 228 c 256
 -20.9423828125 72.9091796875 21.3779296875 0 165.517578125 0 c 256
 309.657226562 0 377.017578125 38.5 377.017578125 112.5 c 256
 377.017578125 178.5 347.517578125 203.5 300.017578125 203.5 c 256
 235.517578125 203.5 246.017578125 147 223.017578125 147 c 256
 202.017578125 147 197.598632812 159 197.598632812 200 c 256
 197.598632812 320.921875 197.098632812 465.0390625 197.098632812 607 c 256
EndSplineSet
Refer: 42 133 S 1 0 0 1 -134.943 0 2
Refer: 42 133 N 1 0 0 1 -134.943 0 2
Refer: 46 139 N 1 0 0 1 -109.958 0 2
Fore
SplineSet
76.1650390625 179.862304688 m 260
 76.1650390625 48.8124999999 118.133789062 -5.921875 234.385742188 -5.921875 c 260
 341.333984375 -5.921875 387 95.0625 387 155.1328125 c 260
 387 171.932617188 373.399414062 187.862304688 345.458007812 187.862304688 c 260
 319.734375 187.862304688 320.612304688 139.90234375 291.734375 139.90234375 c 260
 272.534179688 139.90234375 266.951171875 148.662109375 266.951171875 186.26171875 c 260
 266.951171875 283 266.55078125 369.493164062 266.55078125 483.0625 c 260
 266.55078125 520.161132812 262.70703125 548.54296875 219.750976562 548.54296875 c 260
 161.750976562 548.54296875 77.353515625 508.75390625 77.353515625 463.0625 c 260
 77.353515625 352.75390625 76.1650390625 275.881835938 76.1650390625 179.862304688 c 260
EndSplineSet
Refer: 46 139 S 1 0 0 1 -22 -78 2
PickledDataWithLists: "(dp1
S'com.fontlab.hintData'
p2
(dp3
S'vhints'
p4
(lp5
(dp6
S'position'
p7
I89
sS'width'
p8
I219
sasS'hhints'
p9
(lp10
(dp11
g7
I0
sg8
I147
sa(dp12
g7
I333
sg8
I178
sass."
EndChar

StartChar: v
Encoding: 31 118 31
GlifName: v
Width: 516
VWidth: 0
Flags: W
HStem: -5.90039 130.558<222.506 289.924>
VStem: 27.0449 190.755<128.705 378.76> 294.245 190.755<128.705 378.76>
LayerCount: 2
Back
Fore
SplineSet
255.399414062 124.657226562 m 256
 292.125976562 124.657226562 294.245117188 146.528320312 294.245117188 191.5859375 c 256
 294.245117188 223.584806635 295.293945312 283.21563081 295.293945312 331.53125 c 260
 295.293945312 383.298828125 319.670898438 408.899414062 394.008789062 408.899414062 c 260
 468.348632812 408.899414062 485 375.087271759 485 208.499023438 c 256
 485 46.8994140624 353.36328125 -5.900390625 256.822265625 -5.900390625 c 0
 160.333007812 -5.900390625 27.044921875 46.8994140624 27.044921875 208.499023438 c 256
 27.044921875 375.087271759 43.6972656251 408.899414062 118.036132812 408.899414062 c 260
 192.375 408.899414062 216.750976562 383.298828125 216.750976562 331.53125 c 260
 216.750976562 283.234825107 217.799804688 223.626404494 217.799804688 192.385742188 c 256
 217.799804688 148.54296875 217.802734375 124.657226562 255.399414062 124.657226562 c 256
EndSplineSet
EndChar

StartChar: w
Encoding: 32 119 32
GlifName: w
Width: 766
VWidth: 0
Flags: W
HStem: -6 130.558<227.531 297.693 470.343 541.462>
VStem: 34 190.755<128.605 378.661> 290.801 186.754<146.341 385.231> 543.601 190.755<128.605 378.661>
CounterMasks: 1 70
LayerCount: 2
Back
Fore
SplineSet
509.5546875 124.557617188 m 0
 541.7421875 124.557617188 543.600585938 141.200195313 543.600585938 175.486328125 c 0
 543.600585938 211.144406438 544.6484375 277.592604156 544.6484375 331.431640625 c 4
 544.6484375 383.19921875 569.025390625 408.799804688 643.364257812 408.799804688 c 4
 717.703125 408.799804688 734.35546875 374.987662384 734.35546875 208.399414062 c 0
 734.35546875 46.7998046874 607.333984375 -6 514.177734375 -6 c 0
 473.411132812 -6 426.45703125 7.0390625 384.698242188 38.62109375 c 1
 343.262695312 7.0390625 296.569335938 -6 255.77734375 -6 c 0
 162.647460938 -6 34 46.7998046874 34 208.399414062 c 0
 34 374.987662384 50.6523437499 408.799804688 124.991210938 408.799804688 c 4
 199.330078125 408.799804688 223.70703125 383.19921875 223.70703125 331.431640625 c 4
 223.70703125 277.581495795 224.754882812 211.119588126 224.754882812 176.286132812 c 0
 224.754882812 142.80078125 224.7578125 124.557617188 257.5546875 124.557617188 c 0
 283.471679688 124.557617188 293.946289062 131.211914063 298.14453125 144.7734375 c 1
 293.41015625 178.166015625 290.80078125 215.274414063 290.80078125 256.399414062 c 0
 290.80078125 386.784984721 306.630859375 408.673828125 387.377929688 408.673828125 c 5
 461.6484375 408.440005544 477.5546875 386.782951482 477.5546875 256.399414062 c 0
 477.5546875 214.893554687 474.90234375 177.501953125 470.088867188 143.913085938 c 1
 474.0625 131.23046875 484.1171875 124.557617188 509.5546875 124.557617188 c 0
EndSplineSet
EndChar

StartChar: x
Encoding: 33 120 33
GlifName: x
Width: 511
VWidth: 0
Flags: W
LayerCount: 2
Back
SplineSet
145.200195312 356 m 1
 271.200195312 482 290.200195312 510.46875 394.200195312 510.46875 c 256
 505.200195312 510.46875 563.200195312 452.46875 563.200195312 388.46875 c 256
 563.200195312 328.46875 549.24609375 280.467773438 490.020507812 280.467773438 c 256
 462.020507812 280.467773438 445.200195312 311.46875 421.200195312 311.46875 c 256
 387.200195312 311.46875 343.200195312 236.46875 343.200195312 236.46875 c 257
 145.200195312 356 l 1
369.200195312 154.46875 m 1
 243.200195312 28.46875 224.200195312 0 120.200195312 0 c 256
 9.2001953125 0 -48.7998046875 58 -48.7998046875 122 c 256
 -48.7998046875 182 -34.845703125 230.000976562 24.3798828125 230.000976562 c 256
 52.3798828125 230.000976562 69.2001953125 199 93.2001953125 199 c 256
 127.200195312 199 171.200195312 274 171.200195312 274 c 257
 369.200195312 154.46875 l 1
EndSplineSet
Fore
SplineSet
450.200195312 236.846679688 m 4
 349.565429688 145.465478 247.497070312 63.3780633963 197.838867188 24.447265625 c 4
 167.877929688 1.6220703125 140.799804688 -5.953125 121.0390625 -5.953125 c 260
 68.8193359375 -5.953125 16.599609375 41.6376953125 16.599609375 81.6220703125 c 4
 16.599609375 118.339919444 83.4384765623 164.796669386 181.838867188 238.822265625 c 4
 258.723632812 294.454101562 336.331054688 408.421875 410.638671875 408.421875 c 260
 452.819335938 408.421875 495 360.831054688 495 320.846679688 c 4
 495 281.3203125 477.774414062 261.177734375 450.200195312 236.846679688 c 4
61.3994140625 236.846679688 m 4
 30.697265625 257.087890625 16.599609375 281.3203125 16.599609375 320.846679688 c 4
 16.599609375 360.831054688 64.599609375 408.421875 112.599609375 408.421875 c 260
 132.360351562 408.421875 150.688476562 397.213867188 168.599609375 382.447265625 c 4
 202.443359375 354.543945312 268.360351562 293.924804688 307.360351562 264.046875 c 4
 402.046875 189.039834571 495 124.231513979 495 81.6220703125 c 4
 495 41.6376953125 447 -5.953125 399 -5.953125 c 260
 379.743164062 -5.953125 356.161132812 -5.953125 324.161132812 18.046875 c 4
 272.327148438 58.0189797272 167.29296875 165.068792616 61.3994140625 236.846679688 c 4
EndSplineSet
EndChar

StartChar: y
Encoding: 34 121 34
GlifName: y
Width: 520
VWidth: 0
Flags: W
HStem: -182.157 121.783<140.707 255.705>
VStem: 29.0449 190.755<126.106 378.92> 296.245 190.755<126.547 378.869>
LayerCount: 2
Back
SplineSet
257.59765625 163.196289062 m 260
 303.504882812 163.196289062 306.154296875 190.536132812 306.154296875 246.857421875 c 260
 306.154296875 285.141601562 307.46484375 356.484375 307.46484375 414.2890625 c 260
 307.46484375 478.999023438 337.936523438 510.999023438 430.859375 510.999023438 c 260
 523.783203125 510.999023438 544.59765625 469.999023438 544.59765625 267.999023438 c 260
 544.59765625 65.9990234375 380.051757812 0 259.375976562 0 c 4
 138.763671875 0 -27.845703125 65.9990234375 -27.845703125 267.999023438 c 260
 -27.845703125 469.999023438 -7.0302734375 510.999023438 85.892578125 510.999023438 c 260
 178.81640625 510.999023438 209.287109375 478.999023438 209.287109375 414.2890625 c 260
 209.287109375 356.521484375 210.59765625 285.224609375 210.59765625 247.857421875 c 260
 210.59765625 193.053710938 210.6015625 163.196289062 257.59765625 163.196289062 c 260
EndSplineSet
Fore
SplineSet
487 239.705078125 m 0
 487 150.780273438 486.99976705 87.7051114033 479 31.705078125 c 0
 460.219726562 -99.7607421875 376.599609375 -182.157226562 243.161132812 -182.157226562 c 4
 109.950195312 -182.157226562 43.5859375 -89.8955078125 43.5859375 -51.3505859375 c 4
 43.5859375 -34.55078125 58.2001953125 -20.8408203125 86.7822265625 -20.8408203125 c 4
 101.84765625 -20.8408203125 111.981905451 -37.1324798508 139.224609375 -46.7080078125 c 4
 160.79296875 -54.2890625 178.875 -60.3740234375 206.1015625 -60.3740234375 c 4
 249.653320312 -60.3740234375 263.000976562 -38.6953125 263.000976562 -6 c 5
 150.200195312 -5.0947265625 29.044921875 55.705078125 29.044921875 207.704101562 c 0
 29.044921875 375.122615221 45.6972656251 409.104492188 120.036132812 409.104492188 c 0
 194.375 409.104492188 218.750976562 383.503906251 218.750976562 331.736328125 c 0
 218.750976562 283.092810283 219.799804688 223.056000557 219.799804688 191.590820312 c 0
 219.799804688 147.748046875 219.801757812 123.861328125 257.399414062 123.861328125 c 0
 294.125 123.861328125 296.245117188 145.733398438 296.245117188 190.791015625 c 0
 296.245117188 223.01853743 297.293945312 283.075462508 297.293945312 331.736328125 c 0
 297.293945312 383.503906251 321.669921875 409.104492188 396.008789062 409.104492188 c 0
 478.151367188 409.104492188 487 352.360267334 487 239.705078125 c 0
EndSplineSet
EndChar

StartChar: z
Encoding: 35 122 35
GlifName: z
Width: 460
VWidth: 0
Flags: W
HStem: -5.9502 109.162<266.767 436.746> 299.25 109.162<46.9252 188.475>
LayerCount: 2
Back
SplineSet
385.399414062 356 m 1
 259.399414062 482 240.399414062 510.46875 136.399414062 510.46875 c 256
 25.3994140625 510.46875 -32.6005859375 452.46875 -32.6005859375 388.46875 c 256
 -32.6005859375 328.46875 -18.646484375 280.467773438 40.5791015625 280.467773438 c 256
 68.5791015625 280.467773438 85.3994140625 311.46875 109.399414062 311.46875 c 256
 143.399414062 311.46875 187.399414062 236.46875 187.399414062 236.46875 c 257
 385.399414062 356 l 1
517.399414062 296 m 0
 552.357421875 325.848632812 573.399414062 351.591796875 573.399414062 401 c 0
 573.399414062 450.98046875 513.399414062 510.46875 453.399414062 510.46875 c 256
 428.698242188 510.46875 406.724609375 495.260742188 383.399414062 478 c 0
 333.399414062 441 231.399414062 366 178.399414062 321 c 0
 75.9619140625 234.025390625 -24.6005859375 158.876953125 -24.6005859375 109.46875 c 0
 -24.6005859375 59.48828125 35.3994140625 0 95.3994140625 0 c 256
 120.100585938 0 164.422851562 16.2451171875 191.399414062 38 c 0
 253.399414062 88 387.399414062 185 517.399414062 296 c 0
161.399414062 154.46875 m 1
 287.399414062 28.46875 306.399414062 0 410.399414062 0 c 256
 521.399414062 0 579.399414062 58 579.399414062 122 c 256
 579.399414062 182 565.4453125 230.000976562 506.219726562 230.000976562 c 256
 478.219726562 230.000976562 461.399414062 199 437.399414062 199 c 256
 403.399414062 199 359.399414062 274 359.399414062 274 c 257
 161.399414062 154.46875 l 1
EndSplineSet
Fore
SplineSet
369.141601562 103.211914062 m 4
 432.278320312 103.211914062 445.895507812 83.6503906253 445.895507812 41.0732421875 c 4
 445.895507812 0.361328125 418.348632812 -5.9501953125 357 -5.9501953125 c 4
 293.799804688 -5.9501953125 153 -5.9501953125 100.200195312 -5.9501953125 c 4
 64.2001953128 -5.9501953125 21 21.25 21 67.650390625 c 4
 21 116.436523438 28.4404296875 133.25 74.5947265625 179.404296875 c 4
 114.26171875 221.163182903 152.71484375 261.583531064 188.474609375 299.177734375 c 1
 167.118164062 299.25 145.625 299.25 124.856445312 299.25 c 0
 63.5087890627 299.25 35.9619140625 314.361328125 35.9619140625 355.073242188 c 0
 35.9619140625 397.650390625 49.578125 408.412109375 112.71484375 408.412109375 c 0
 180.056640625 408.412109375 309.70703125 408.450195312 377 408.450195312 c 0
 429.799804688 408.450195312 446.599609375 364.169921875 446.599609375 341.650390625 c 0
 446.599609375 287.00390625 433 278.879882812 398.157226562 244.037109375 c 0
 353.911132812 197.825233573 315.025390625 152.616988162 266.766601562 102.98828125 c 5
 303.383789062 103.106445312 339.309570312 103.211914062 369.141601562 103.211914062 c 4
EndSplineSet
EndChar

StartChar: dotlessi
Encoding: 36 305 36
GlifName: dotlessi
Width: 362
VWidth: 0
GlyphClass: 2
Flags: W
HStem: -5.90527 414.771<113.511 243.642>
VStem: 82.1914 189.078<15.5223 376.928>
LayerCount: 2
Back
Fore
SplineSet
271.26953125 86.8662109375 m 256
 271.26953125 16.638671875 244.000061752 -5.9052734375 171.345703125 -5.9052734375 c 260
 100 -5.9052734375 82.19140625 27.302734375 82.19140625 96.494140625 c 256
 82.19140625 167.678510843 83.7216796875 250.401594902 83.7216796875 310.90625 c 256
 83.7216796875 369.716796875 117 408.866210938 170.819335938 408.866210938 c 260
 225.465796237 408.866210938 269 392.006835938 269 313.450195312 c 256
 269 232.75777601 271.26953125 159.003975874 271.26953125 86.8662109375 c 256
EndSplineSet
PickledDataWithLists: "(dp1
S'com.fontlab.hintData'
p2
(dp3
S'vhints'
p4
(lp5
(dp6
S'position'
p7
I59
sS'width'
p8
I236
sass."
EndChar

StartChar: quotesingle
Encoding: 38 39 37
GlifName: quotesingle
Width: 275
VWidth: 0
Flags: W
HStem: -6 132.159<62.0863 140.308>
VStem: 141.952 88.0479<7.86719 105.044>
LayerCount: 2
Back
Fore
SplineSet
141.952148438 4.931640625 m 5
 118.975437669 -34.688891401 101 -48 45.189453125 -75.298828125 c 4
 34.5221206255 -80.5165816279 32.505680871 -91.5747192535 32.505680871 -99.9999994751 c 3
 32.505680871 -111.853054955 39.839891676 -122.894480402 48.1669921875 -128.098632812 c 0
 52.2822668148 -130.670633348 58.4179256437 -132.077762657 65.9999990769 -132.077762657 c 3
 118.640302866 -132.077762657 241 -73.4403656583 241 43 c 0
 241 127 151 126.159179688 143 126.159179688 c 1
 141.952148438 4.931640625 l 5
40.8349609375 60.1591796875 m 256
 40.8349609375 10.4306640625 86.775390625 -6 135 -6 c 256
 192.237304688 -6 230 7.8671875 230 60.1591796875 c 256
 230 105.043945312 197.739257812 126.159179688 135 126.159179688 c 256
 73.1142578125 126.159179688 40.8349609375 97.673828125 40.8349609375 60.1591796875 c 256
EndSplineSet
EndChar

StartChar: uni0082
Encoding: 40 130 39
GlifName: uni0082
Width: 424
VWidth: 0
GlyphClass: 2
Flags: W
HStem: 443.217 145.824<313.309 448.168>
VStem: 214.616 189.555<26.1547 396.721 396.857 438.12>
LayerCount: 2
Back
SplineSet
379.05859375 537.283203125 m 260xa0
 387.858398438 537.283203125 391.05859375 530.083007812 391.05859375 518.8828125 c 260
 391.05859375 504.482421875 380.0703125 491.290039062 380.0703125 473.370117188 c 260
 380.0703125 435.465820312 404.750976562 431.791992188 434.470703125 431.791992188 c 260
 513.072265625 431.791992188 535.966796875 483.180664062 535.966796875 513.146484375 c 260
 535.966796875 571.06640625 494.258789062 612.345703125 378.672851562 612.345703125 c 260
 246.258789062 612.345703125 215.489257812 533.282226562 215.489257812 409.208984375 c 260xb0
 215.489257812 298.1328125 214.616210938 213.282226562 214.616210938 124.53125 c 260
 214.616210938 28.482421875 246.165039062 0.482421875 308.555664062 0.482421875 c 260
 370.946289062 0.482421875 404.170898438 28.482421875 404.170898438 131.180664062 c 260xc0
 404.170898438 215.493164062 399.858398438 275.276367188 399.858398438 325.080078125 c 7
 399.858398438 374.8828125 390.927734375 385.220703125 371.05859375 412.083007812 c 260
 359.182617188 428.137695312 356.987304688 456.442382812 356.987304688 482.083007812 c 7
 356.987304688 511.428710938 367.530273438 537.283203125 379.05859375 537.283203125 c 260xa0
EndSplineSet
Fore
SplineSet
404 396.857421875 m 5
 404 434.45703125 409.583007812 443.216796875 428.783203125 443.216796875 c 260
 457.661132812 443.216796875 456.783203125 395.256835938 482.506835938 395.256835938 c 260
 510.448242188 395.256835938 524.048828125 411.186523438 524.048828125 427.986328125 c 260
 524.048828125 488.056640625 478.3828125 589.041015625 371.434570312 589.041015625 c 260
 255.182617188 589.041015625 217.068388969 534.303854603 216.213867188 403.256835938 c 260
 215.489257812 292.1328125 214.616210938 207.282226562 214.616210938 118.53125 c 260
 214.616210938 22.482421875 246.165039062 -5.517578125 308.555664062 -5.517578125 c 260
 370.946289062 -5.517578125 404.170898438 22.4824218751 404.170898438 125.180664062 c 260
 404.170898438 209.493164062 404 396.857421875 404 396.857421875 c 5
EndSplineSet
PickledDataWithLists: "(dp1
S'com.fontlab.hintData'
p2
(dp3
S'vhints'
p4
(lp5
(dp6
S'position'
p7
I176
sS'width'
p8
I225
sa(dp9
g7
I186
sg8
I237
sasS'hhints'
p10
(lp11
(dp12
g7
I618
sg8
I147
sass."
EndChar

StartChar: uni0083
Encoding: 41 131 40
GlifName: uni0083
Width: 562
VWidth: 0
GlyphClass: 2
Flags: W
VStem: 196.542 75.2002<247.551 308.399>
LayerCount: 2
Back
Fore
SplineSet
491.109375 342.350585938 m 256
 491.716796875 277.859375 460.205078125 226.6953125 386.765625 226.6953125 c 256
 313.327148438 226.6953125 325.870117188 309.89453125 299.965820312 309.89453125 c 256
 274.061523438 309.89453125 271.00390625 290.462890625 271.7421875 247.55078125 c 257
 196.541992188 247.094726562 l 257
 196.541992188 298.765625 218.0390625 355.703125 257.444335938 390.084960938 c 256
 297.56640625 425.09375 328.127929688 440.23828125 393.994140625 440.23828125 c 256
 459.860351562 440.23828125 490.500976562 406.841796875 491.109375 342.350585938 c 256
EndSplineSet
PickledDataWithLists: "(dp1
S'com.fontlab.hintData'
p2
(dp3
S'vhints'
p4
(lp5
(dp6
S'position'
p7
I160
sS'width'
p8
I94
sasS'hhints'
p9
(lp10
(dp11
g7
I353
sg8
I162
sass."
EndChar

StartChar: uni0084
Encoding: 42 132 41
GlifName: uni0084
Width: 642
VWidth: 0
GlyphClass: 2
Flags: W
HStem: -5.5 133.757<154.401 318.17>
VStem: 79.1318 190.755<136.205 373.343> 351.502 76.2334<135.96 192.93>
LayerCount: 2
Back
SplineSet
273.99 228.399 m 256
 273.99 179.695 278.875 166.736 305.662 167.161 c 256
 332.449 167.586 336.013 199.071 336.013 244.002 c 257
 431.304 244.932 l 257
 431.304 182.932 414.501 106.002 355.79 60.8848 c 256
 297.171 15.8389 222.114 -1.17188 153.772 -0.0351562 c 256
 85.4297 1.10156 51.7441 41.5273 46.1221 121.764 c 260
 40.5 202.001 39.4678 287.76 39.4678 380.38 c 260
 39.4678 473.001 73 511.001 145.025 511.001 c 256
 217.051 511.001 272.681 491.395 272.681 421.197 c 256
 272.681 351 273.99 277.104 273.99 228.399 c 256
EndSplineSet
Fore
SplineSet
269.88671875 177.248046875 m 260
 269.88671875 138.28515625 286.33203125 128.256835938 307.930664062 128.256835938 c 260
 334.182617188 128.256835938 351.501953125 155.115234375 351.501953125 192.9296875 c 261
 427.735351562 193.673828125 l 261
 427.735351562 142.995117188 414.674804688 79.6220703125 367.361328125 43.2646484375 c 260
 315.666992188 7.2001953125 261.532226562 -5.5 195.271484375 -5.5 c 260
 113.53125 -5.5 79.1318359375 50.4990234375 79.1318359375 199.298828125 c 260
 79.1318359375 373.69921875 95.7841796876 406.499023438 177.532226562 406.499023438 c 260
 244.461914062 406.499023438 268.837890625 380.899414062 268.837890625 334.6875 c 260
 268.837890625 277.364257812 269.88671875 217.020507812 269.88671875 177.248046875 c 260
EndSplineSet
PickledDataWithLists: "(dp1
S'com.fontlab.hintData'
p2
(dp3
S'vhints'
p4
(lp5
(dp6
S'position'
p7
I30
sS'width'
p8
I225
sa(dp9
g7
I43
sg8
I213
sa(dp10
g7
I331
sg8
I95
sasS'hhints'
p11
(lp12
(dp13
g7
I0
sg8
I162
sass."
EndChar

StartChar: uni0085
Encoding: 43 133 42
GlifName: uni0085
Width: 320
VWidth: 0
GlyphClass: 2
Flags: W
HStem: -6 595.489<111.101 240.771>
VStem: 82.0312 189.555<27.7061 560.652>
LayerCount: 2
Back
Fore
SplineSet
271.5859375 124.69921875 m 256
 271.5859375 27.796875 238.361328125 -6 175.969726562 -6 c 256
 113.579101562 -6 82.03125 21.9999999999 82.03125 118.049804688 c 256
 82.03125 216.754898415 80.0947265625 407.614986266 80.0947265625 485.185546875 c 260
 80.0947265625 560.670898437 122 589.489257812 175.969726562 589.489257812 c 260
 230.617151725 589.489257812 271.307617188 577.473632813 271.307617188 493 c 260
 271.307617188 411.33511124 271.5859375 237.828329617 271.5859375 124.69921875 c 256
EndSplineSet
PickledDataWithLists: "(dp1
S'com.fontlab.hintData'
p2
(dp3
S'vhints'
p4
(lp5
(dp6
S'position'
p7
I65
sS'width'
p8
I217
sasS'hhints'
p9
(lp10
(dp11
g7
I0
sg8
I711
sass."
EndChar

StartChar: uni0087
Encoding: 44 135 43
GlifName: uni0087
Width: 642
VWidth: 0
GlyphClass: 2
Flags: W
HStem: -0.5 21G<405.56 479.898> 277.742 133.757<298.387 462.155>
VStem: 188.821 76.2334<213.069 270.039> 347.718 189.707<32.6556 269.794>
LayerCount: 2
Back
SplineSet
342.557 286.563 m 260
 342.557 335.268 328.921 348.25 295.002 347.803 c 260
 262.19 347.355 240.537 314.23 240.537 266.962 c 261
 145.246 266.032 l 261
 145.246 329.38 161.571 408.597 220.713 454.043 c 260
 285.331 499.124 353.922 514.999 437.826 514.999 c 260
 514.002 514.999 564.891 473.242 570.435 393.1 c 260
 576.063 311.723 577.08 224.635 577.08 130.582 c 260
 577.08 37.9619 549.87 -0.000976562 459.662 -0.000976562 c 260
 393.357 -0.000976562 343.867 19.5674 343.867 89.7646 c 260
 343.867 161.419 342.557 236.849 342.557 286.563 c 260
EndSplineSet
Fore
SplineSet
346.669921875 228.75 m 260
 346.669921875 267.713867188 330.224609375 277.7421875 308.625976562 277.7421875 c 260
 282.374023438 277.7421875 265.0546875 250.883789062 265.0546875 213.069335938 c 261
 188.821289062 212.325195312 l 261
 188.821289062 263.00390625 201.881835938 326.377929688 249.1953125 362.734375 c 260
 300.889648438 398.798828125 355.024414062 411.499023438 421.28515625 411.499023438 c 260
 503.025390625 411.499023438 537.424804688 355.5 537.424804688 206.700195312 c 260
 537.424804688 32.2998046875 520.772460938 -0.5 439.024414062 -0.5 c 260
 372.094726562 -0.5 347.717773438 25.099609375 347.717773438 71.3115234375 c 260
 347.717773438 128.634765625 346.669921875 188.979492188 346.669921875 228.75 c 260
EndSplineSet
PickledDataWithLists: "(dp1
S'com.fontlab.hintData'
p2
(dp3
S'vhints'
p4
(lp5
(dp6
S'position'
p7
I145
sS'width'
p8
I95
sa(dp9
g7
I344
sg8
I233
sasS'hhints'
p10
(lp11
(dp12
g7
I0
sg8
I21
sa(dp13
g7
I495
sg8
I20
sass."
EndChar

StartChar: uni0089
Encoding: 45 137 44
GlifName: uni0089
Width: 668
VWidth: 0
GlyphClass: 2
Flags: W
HStem: -11.3057 107.383<192.084 337.323>
VStem: 77.0557 188.501<113.464 286.423> 372.757 81.5996<117.009 282.637>
LayerCount: 2
Back
Fore
SplineSet
372.756835938 198.676757812 m 256
 372.756835938 251.207946924 355.290039062 307.174789911 315.801757812 307.422851562 c 256
 284.463867188 307.619233704 265.556640625 251.019833505 265.556640625 198.676757812 c 256
 265.556640625 150.231904134 281.498046875 96.0771484375 315.15625 96.0771484375 c 260
 356.161132812 96.0771484375 372.756835938 149.022579326 372.756835938 198.676757812 c 256
235.956054688 -11.3056640625 m 260
 148.212890625 -11.3056640625 77.0556640625 64.2772837054 77.0556640625 198.676757812 c 256
 77.0556640625 333.619401027 144.8671875 415.077148438 235.661132812 415.077148438 c 256
 362.024414062 415.077148438 454.356445312 287.201033801 454.356445312 206.185546875 c 256
 454.356445312 66.9794172682 357.981445312 -11.3056640625 235.956054688 -11.3056640625 c 260
EndSplineSet
PickledDataWithLists: "(dp1
S'com.fontlab.hintData'
p2
(dp3
S'vhints'
p4
(lp5
(dp6
S'position'
p7
I30
sS'width'
p8
I236
sa(dp9
g7
I400
sg8
I102
sasS'hhints'
p10
(lp11
(dp12
g7
I-4
sg8
I134
sa(dp13
g7
I380
sg8
I135
sass."
EndChar

StartChar: uni008A
Encoding: 46 138 45
GlifName: uni008A_
Width: 668
VWidth: 0
GlyphClass: 2
Flags: W
HStem: -0.304688 107.383<191.038 339.328>
VStem: 77.0557 81.6006<126.044 286.809> 265.856 188.5<122.564 288.716>
LayerCount: 2
Back
Fore
SplineSet
158.65625 204.677734375 m 260
 158.65625 157.443359375 175.25 107.078125 216.256835938 107.078125 c 260
 249.913085938 107.078125 265.856445312 158.592773438 265.856445312 204.677734375 c 260
 265.856445312 254.131835938 246.947265625 307.609375 215.609375 307.422851562 c 260
 176.122070312 307.188476562 158.65625 254.310546875 158.65625 204.677734375 c 260
295.456054688 -0.3046875 m 260
 173.4296875 -0.3046875 77.0556640625 76.1796875 77.0556640625 212.185546875 c 260
 77.0556640625 290.768554688 169.38671875 416.028320312 295.75 415.077148438 c 260
 386.541015625 414.39453125 454.356445312 335.87890625 454.356445312 204.677734375 c 260
 454.356445312 73.4775390625 383.19921875 -0.3046875 295.456054688 -0.3046875 c 260
EndSplineSet
PickledDataWithLists: "(dp1
S'com.fontlab.hintData'
p2
(dp3
S'vhints'
p4
(lp5
(dp6
S'position'
p7
I30
sS'width'
p8
I102
sa(dp9
g7
I266
sg8
I236
sasS'hhints'
p10
(lp11
(dp12
g7
I-4
sg8
I134
sa(dp13
g7
I380
sg8
I135
sass."
EndChar

StartChar: uni008B
Encoding: 47 139 46
GlifName: uni008B_
Width: 492
VWidth: 0
GlyphClass: 2
Flags: W
HStem: 338.7 109.161<46.3274 111.432 300.476 383.224>
LayerCount: 2
Back
Fore
SplineSet
308.618164062 447.861328125 m 260
 245.484375 448.596679688 180.586914062 448.922851562 111.431640625 448.922851562 c 260
 46 448.922851562 35.4931640625 427 35.4931640625 393.09765625 c 260
 35.4931640625 360.541015625 53.44140625 342.6171875 106 342 c 260
 158.560546875 341.381835938 239.126867432 338.700195312 300.475585938 338.700195312 c 260
 363 338.700195312 392.170898438 349.010742188 392.170898438 389.723632812 c 260
 392.170898438 434 371.750976562 447.125976562 308.618164062 447.861328125 c 260
EndSplineSet
PickledDataWithLists: "(dp1
S'com.fontlab.hintData'
p2
(dp3
S'hhints'
p4
(lp5
(dp6
S'position'
p7
I333
sS'width'
p8
I178
sass."
EndChar
